<svg width="34" height="34" viewBox="0 0 34 34" fill="none" xmlns="http://www.w3.org/2000/svg">
<g opacity="0.5">
<path d="M16.9278 20.5978C21.7887 20.5978 25.9391 21.3684 25.9391 24.4522C25.9391 27.5346 21.8153 28.3333 16.9278 28.3333C12.067 28.3333 7.91648 27.5627 7.91648 24.4802C7.91648 21.3965 12.0403 20.5978 16.9278 20.5978ZM24.6997 18.7409C26.558 18.7065 28.5559 18.9616 29.2942 19.1428C30.8582 19.4503 31.887 20.078 32.3132 20.9902C32.6734 21.7392 32.6734 22.608 32.3132 23.3557C31.6612 24.7706 29.5593 25.2248 28.7424 25.3422C28.5737 25.3677 28.4379 25.221 28.4557 25.0513C28.873 21.1306 25.5534 19.2717 24.6946 18.8443C24.6578 18.8251 24.6502 18.7958 24.654 18.7779C24.6566 18.7651 24.6718 18.7447 24.6997 18.7409ZM9.30129 18.7414C9.32919 18.7452 9.34315 18.7657 9.34568 18.7771C9.34949 18.7963 9.34188 18.8243 9.30636 18.8448C8.44633 19.2722 5.12669 21.1311 5.54403 25.0505C5.56179 25.2215 5.42733 25.367 5.25862 25.3427C4.44171 25.2253 2.33983 24.7711 1.68783 23.3562C1.32631 22.6073 1.32631 21.7397 1.68783 20.9908C2.11404 20.0785 3.14151 19.4508 4.70556 19.142C5.44509 18.9621 7.44168 18.707 9.30129 18.7414ZM16.9278 5.66666C20.2373 5.66666 22.891 8.33321 22.891 11.6632C22.891 14.9919 20.2373 17.661 16.9278 17.661C13.6183 17.661 10.9647 14.9919 10.9647 11.6632C10.9647 8.33321 13.6183 5.66666 16.9278 5.66666ZM25.0232 6.66668C28.2198 6.66668 30.7301 9.69175 29.8751 13.0613C29.298 15.3298 27.2088 16.8366 24.8811 16.7753C24.6477 16.7689 24.4181 16.7472 24.1961 16.709C24.035 16.6809 23.9538 16.4985 24.0452 16.3632C24.9331 15.0491 25.4392 13.4683 25.4392 11.7714C25.4392 10.0005 24.8862 8.34954 23.9259 6.99585C23.8955 6.95375 23.8727 6.88868 23.9031 6.8402C23.9285 6.80065 23.9754 6.78023 24.0198 6.77003C24.3433 6.70368 24.6756 6.66668 25.0232 6.66668ZM8.97592 6.66656C9.32348 6.66656 9.65583 6.70356 9.98056 6.7699C10.0237 6.78011 10.0719 6.8018 10.0973 6.84007C10.1264 6.88855 10.1049 6.95362 10.0744 6.99573C9.11418 8.34941 8.56112 10.0004 8.56112 11.7713C8.56112 13.4682 9.06725 15.049 9.95519 16.3631C10.0465 16.4983 9.96534 16.6808 9.80424 16.7088C9.58099 16.7484 9.35266 16.7688 9.11926 16.7752C6.79158 16.8364 4.70239 15.3296 4.12522 13.0612C3.269 9.69162 5.77933 6.66656 8.97592 6.66656Z" fill="white"/>
</g>
</svg>
