<svg width="34" height="34" viewBox="0 0 34 34" fill="none" xmlns="http://www.w3.org/2000/svg">
<path d="M11.22 19.0821C13.2175 19.0821 14.8183 20.6985 14.8183 22.7102V27.5396C14.8183 29.5371 13.2175 31.1662 11.22 31.1662H6.43165C4.44831 31.1662 2.83331 29.5371 2.83331 27.5396V22.7102C2.83331 20.6985 4.44831 19.0821 6.43165 19.0821H11.22ZM27.5685 19.0821C29.5518 19.0821 31.1668 20.6985 31.1668 22.7102V27.5396C31.1668 29.5371 29.5518 31.1662 27.5685 31.1662H22.7801C20.7826 31.1662 19.1818 29.5371 19.1818 27.5396V22.7102C19.1818 20.6985 20.7826 19.0821 22.7801 19.0821H27.5685ZM11.22 2.83333C13.2175 2.83333 14.8183 4.46249 14.8183 6.46141V11.2908C14.8183 13.3025 13.2175 14.9175 11.22 14.9175H6.43165C4.44831 14.9175 2.83331 13.3025 2.83331 11.2908V6.46141C2.83331 4.46249 4.44831 2.83333 6.43165 2.83333H11.22ZM27.5685 2.83333C29.5518 2.83333 31.1668 4.46249 31.1668 6.46141V11.2908C31.1668 13.3025 29.5518 14.9175 27.5685 14.9175H22.7801C20.7826 14.9175 19.1818 13.3025 19.1818 11.2908V6.46141C19.1818 4.46249 20.7826 2.83333 22.7801 2.83333H27.5685Z" fill="white"/>
</svg>
