<svg width="50" height="50" viewBox="0 0 50 50" fill="none" xmlns="http://www.w3.org/2000/svg">
<rect width="50" height="50" rx="10" fill="white"/>
<g clip-path="url(#clip0_600_4616)">
<path d="M28.0008 32C28.001 32.5046 27.8104 32.9906 27.4673 33.3605C27.1242 33.7305 26.654 33.9572 26.1508 33.995L26.0008 34H24.0008C23.4962 34.0002 23.0103 33.8096 22.6403 33.4665C22.2703 33.1234 22.0437 32.6532 22.0058 32.15L22.0008 32H28.0008ZM25.0008 15C26.8158 15 28.5598 15.7049 29.8651 16.9661C31.1703 18.2273 31.9346 19.9461 31.9968 21.76L32.0008 22V25.764L33.8228 29.408C33.9023 29.567 33.9421 29.7429 33.9388 29.9206C33.9355 30.0984 33.8891 30.2727 33.8037 30.4286C33.7183 30.5845 33.5963 30.7174 33.4483 30.8158C33.3003 30.9143 33.1306 30.9754 32.9538 30.994L32.8388 31H17.1628C16.985 31.0001 16.8098 30.957 16.6522 30.8745C16.4947 30.792 16.3595 30.6725 16.2582 30.5264C16.157 30.3802 16.0927 30.2116 16.0708 30.0351C16.049 29.8586 16.0703 29.6795 16.1328 29.513L16.1788 29.408L18.0008 25.764V22C18.0008 20.1435 18.7383 18.363 20.0511 17.0503C21.3638 15.7375 23.1443 15 25.0008 15Z" fill="#252525"/>
<path d="M33.1667 18.3333C33.1667 19.8981 31.8981 21.1667 30.3333 21.1667C28.7685 21.1667 27.5 19.8981 27.5 18.3333C27.5 16.7685 28.7685 15.5 30.3333 15.5C31.8981 15.5 33.1667 16.7685 33.1667 18.3333Z" fill="#F55D4B" stroke="white"/>
</g>
<defs>
<clipPath id="clip0_600_4616">
<rect width="24" height="24" fill="white" transform="translate(13 13)"/>
</clipPath>
</defs>
</svg>
