<svg width="34" height="34" viewBox="0 0 34 34" fill="none" xmlns="http://www.w3.org/2000/svg">
<g opacity="0.5">
<path d="M3.00006 15.2252C3.0959 14.8692 3.15752 14.4927 3.30128 14.1572C4.05434 12.3362 6.08075 11.8707 7.62109 13.1783C8.76436 14.1435 9.25727 15.4169 9.25043 16.8956C9.25043 17.5049 9.12035 18.0868 8.82598 18.6276C8.04554 20.079 6.33405 20.4761 4.94432 19.5245C3.82842 18.7577 3.26021 17.6487 3.05483 16.3342C3.04114 16.2589 3.0206 16.1768 3.00006 16.1015C3.00006 15.8071 3.00006 15.5127 3.00006 15.2252Z" fill="white"/>
<path d="M22.5447 29.1088C21.3535 28.924 20.1486 28.7871 18.9643 28.5338C17.5266 28.2257 16.1163 28.3078 14.6855 28.568C13.5286 28.7802 12.3511 28.924 11.1736 29.0335C10.4479 29.102 9.71536 28.9787 9.05815 28.6296C8.04495 28.0888 7.64103 27.1714 7.59996 26.0829C7.54519 24.7411 7.83957 23.4609 8.33932 22.2286C9.07869 20.3871 10.1877 18.8056 11.7007 17.5186C13.3848 16.0878 15.3017 15.2731 17.5608 15.4374C19.019 15.547 20.3198 16.0741 21.4973 16.9093C23.6948 18.4702 25.1599 20.5787 25.9677 23.1391C26.3031 24.1934 26.4948 25.2819 26.3579 26.391C26.1662 27.8834 25.2283 28.7939 23.7359 28.9787C23.3457 29.0267 22.9555 29.0335 22.5652 29.0609C22.5515 29.0814 22.5515 29.0951 22.5447 29.1088Z" fill="white"/>
<path d="M9.11371 10.0565C9.14109 8.6873 9.45601 7.4208 10.3049 6.3186C11.1333 5.24378 12.3724 4.77826 13.5499 5.10002C14.4262 5.34647 15.0697 5.90784 15.5489 6.65405C16.3088 7.8384 16.569 9.15283 16.4731 10.5357C16.391 11.7201 16.0487 12.8223 15.2956 13.767C14.7342 14.4653 14.036 14.9582 13.1254 15.0541C11.9479 15.1841 11.0374 14.6638 10.3254 13.7807C9.44916 12.7059 9.14109 11.4188 9.11371 10.0565Z" fill="white"/>
<path d="M24.8724 10.0839C24.845 11.3983 24.5438 12.6853 23.6675 13.7738C22.846 14.7939 21.7985 15.3142 20.4704 14.9856C19.4572 14.7323 18.7315 14.0545 18.2728 13.1508C17.1638 10.9738 17.1706 8.78312 18.4372 6.67456C19.0807 5.60659 20.046 4.93569 21.3672 5.01099C22.5242 5.07945 23.332 5.75036 23.9413 6.68826C24.5985 7.70146 24.8518 8.83789 24.8724 10.0839Z" fill="white"/>
<path d="M31.0001 15.4993C30.9316 17.0533 30.4866 18.2924 29.3981 19.2509C27.7551 20.6954 25.5712 20.0861 24.9072 17.9981C24.3663 16.2934 25.092 14.0753 26.5365 13.0416C28.2275 11.8299 30.2333 12.5076 30.8152 14.5066C30.9179 14.8695 30.9521 15.2597 31.0001 15.4993Z" fill="white"/>
</g>
</svg>
