<svg width="34" height="34" viewBox="0 0 34 34" fill="none" xmlns="http://www.w3.org/2000/svg">
<g opacity="0.5">
<path d="M22.3903 3H11.9397C11.5305 3 11.1213 3.17313 10.838 3.45643L3.45643 10.838C3.17313 11.1213 3 11.5305 3 11.9397V22.3746C3 22.7995 3.17313 23.193 3.45643 23.492L10.8222 30.8578C11.1213 31.1569 11.5305 31.33 11.9397 31.33H22.3746C22.7995 31.33 23.193 31.1569 23.492 30.8736L30.8578 23.5078C31.0044 23.3612 31.1203 23.1869 31.1987 22.995C31.277 22.8032 31.3163 22.5976 31.3143 22.3903V11.9397C31.3143 11.5147 31.1411 11.1213 30.8578 10.8222L23.492 3.45643C23.2087 3.17313 22.7995 3 22.3903 3ZM17.165 25.5066C16.0318 25.5066 15.1189 24.5938 15.1189 23.4606C15.1189 22.3274 16.0318 21.4145 17.165 21.4145C18.2982 21.4145 19.2111 22.3274 19.2111 23.4606C19.2111 24.5938 18.2982 25.5066 17.165 25.5066ZM17.165 18.7389C16.2994 18.7389 15.5911 18.0306 15.5911 17.165V10.8694C15.5911 10.0038 16.2994 9.29556 17.165 9.29556C18.0306 9.29556 18.7389 10.0038 18.7389 10.8694V17.165C18.7389 18.0306 18.0306 18.7389 17.165 18.7389Z" fill="white"/>
</g>
</svg>
