<svg width="34" height="34" viewBox="0 0 34 34" fill="none" xmlns="http://www.w3.org/2000/svg">
<path d="M18.2713 31.7193C14.8548 31.7193 12.0504 29.059 11.893 25.7252L11.886 25.4293V18.6435H20.5342C21.154 18.6435 21.6441 18.1618 21.6441 17.5527C21.6441 17.0072 21.2323 16.5452 20.6863 16.4719L20.5342 16.4618H11.886V9.69016C11.886 6.31849 14.5928 3.54842 17.9979 3.39288L18.3001 3.38599H25.3196C28.7501 3.38599 31.5549 6.04637 31.7123 9.38014L31.7193 9.67599V25.4152C31.7193 28.8006 28.9989 31.5577 25.6062 31.7125L25.3052 31.7193H18.2713ZM8.28737 22.4399C7.901 22.8391 7.29219 22.8754 6.86538 22.5594L6.7432 22.454L2.60653 18.3315C2.39403 18.119 2.2807 17.8499 2.2807 17.5524C2.2807 17.3257 2.35323 17.099 2.49105 16.9159L2.60653 16.7874L6.7432 12.6649C6.9557 12.4524 7.23903 12.339 7.5082 12.339C7.79153 12.339 8.07487 12.4524 8.28737 12.6649C8.67373 13.0512 8.70886 13.6601 8.39274 14.0869L8.28737 14.209L6.0207 16.4615L11.886 16.4618L11.886 18.6435L6.0207 18.6432L8.28737 20.8957C8.71237 21.3207 8.71237 22.0149 8.28737 22.4399Z" fill="#B9C2CD"/>
</svg>
