<svg width="22" height="14" viewBox="0 0 22 14" fill="none" xmlns="http://www.w3.org/2000/svg">
<path d="M12.3574 6.57918L12.3591 6.99229C12.3591 8.7092 12.2586 10.2745 12.1071 11.2948L11.9745 11.9294C11.9006 12.2654 11.8036 12.6481 11.7024 12.8434C11.332 13.5579 10.6079 14 9.8328 14H9.76534C9.26008 13.9833 8.19863 13.5399 8.19863 13.5245C6.49065 12.8079 3.19553 10.645 1.67366 9.10305L1.23142 8.64011C1.11561 8.51465 0.985497 8.36616 0.904722 8.25041C0.634907 7.89315 0.5 7.45107 0.5 7.009C0.5 6.51551 0.651453 6.05673 0.937813 5.68148L1.39218 5.19112L1.49399 5.08647C2.87488 3.58932 6.48047 1.14118 8.36663 0.391959L8.6514 0.282825C8.99408 0.159996 9.47421 0.0134937 9.76534 0C10.1357 0 10.4895 0.0861024 10.8268 0.255737C11.2481 0.493483 11.584 0.868735 11.7699 1.31081C11.8882 1.61667 12.074 2.53552 12.074 2.55223C12.2444 3.4787 12.3432 4.94062 12.3574 6.57918ZM21.5 7.00051C21.5 7.97848 20.7147 8.7714 19.7462 8.7714L15.4304 8.38972C14.6706 8.38972 14.0546 7.76772 14.0546 7.00051C14.0546 6.23202 14.6706 5.61131 15.4304 5.61131L19.7462 5.22963C20.7147 5.22963 21.5 6.02254 21.5 7.00051Z" fill="black"/>
</svg>
